<svg xmlns="http://www.w3.org/2000/svg" version="1.1" xmlns:xlink="http://www.w3.org/1999/xlink" xmlns:svgjs="http://svgjs.dev/svgjs" width="1000" height="1000"><style>
    #light-icon {
      display: inline;
    }
    #dark-icon {
      display: none;
    }

    @media (prefers-color-scheme: dark) {
      #light-icon {
        display: none;
      }
      #dark-icon {
        display: inline;
      }
    }
  </style><g id="light-icon"><svg xmlns="http://www.w3.org/2000/svg" version="1.1" xmlns:xlink="http://www.w3.org/1999/xlink" xmlns:svgjs="http://svgjs.dev/svgjs" width="1000" height="1000"><g><g transform="matrix(0.2648305084745763,0,0,0.2648305084745763,0,268.9353813559321)"><svg xmlns="http://www.w3.org/2000/svg" version="1.1" xmlns:xlink="http://www.w3.org/1999/xlink" xmlns:svgjs="http://svgjs.dev/svgjs" width="3776px" height="1745px"><svg width="3776px" height="1745px" version="1.1" xmlns="http://www.w3.org/2000/svg" xmlns:xlink="http://www.w3.org/1999/xlink" xml:space="preserve" xmlns:serif="http://www.serif.com/" style="fill-rule:evenodd;clip-rule:evenodd;stroke-linejoin:round;stroke-miterlimit:2;">
    <g transform="matrix(4.16667,0,0,4.16667,-450.727,-5377.85)">
        <g transform="matrix(0.608178,0,0,0.608178,491.322,864.945)">
            <g transform="matrix(1.95262,0,0,1.95262,-664.879,215.391)">
                <path d="M534.525,587.948l-16.888,0l-2.317,-31.921l6.024,-0c2.872,-0 5.201,-2.329 5.201,-5.201c-0,-7.068 -0,-19.731 -0,-27.649c-0,-1.871 -0.743,-3.664 -2.066,-4.987c-1.323,-1.322 -3.116,-2.065 -4.987,-2.065c-0.567,-0 -0.928,-0 -0.928,-0l-0.798,-13.567l27.844,-0c1.293,-0 2.533,-0.514 3.448,-1.428c0.914,-0.915 1.428,-2.155 1.428,-3.448l-0,-4.19c-0,-2.926 -2.373,-5.299 -5.299,-5.299c-9.075,-0 -26.623,-0 -26.623,-0l0,-129.283l-3.192,-6.385l1.348,0c1.039,0 1.886,-0.834 1.9,-1.873c0.042,-1.872 0.077,-4.673 -0.056,-6.107l0,-19.951l17.575,-0c3.516,-0 6.366,-2.85 6.366,-6.367c0,-5.072 0,-12.067 0,-16.698c0,-2.688 -2.178,-4.867 -4.866,-4.867c-6.999,0 -19.075,0 -19.075,0l0,-15.96l9.856,-0c0.773,-0 1.514,-0.307 2.06,-0.853c0.546,-0.547 0.853,-1.287 0.853,-2.06c-0,-2.074 -0,-4.823 -0,-6.746c-0,-0.613 -0.244,-1.201 -0.677,-1.635c-0.434,-0.434 -1.022,-0.677 -1.635,-0.677c-3.735,-0 -10.684,-0 -10.684,-0c0,-0 0.166,-10.648 0.227,-15.961c13.932,0.256 30.102,-2.815 37.976,-3.317c7.874,-0.503 15.496,-0.838 22.867,-1.005c7.371,-0.168 13.57,-0.252 18.595,-0.252c16.083,0 32.333,1.005 48.75,3.016c16.418,2.01 32.165,5.779 47.243,11.308c15.077,5.528 28.898,13.151 41.462,22.867c12.565,9.716 23.035,22.281 31.411,37.693c4.356,8.377 7.79,16.92 10.303,25.632c2.513,8.711 3.769,17.757 3.769,27.139c0,19.768 -4.439,37.442 -13.318,53.022c-8.879,15.58 -20.438,28.814 -34.678,39.703c-14.239,10.889 -30.238,19.517 -47.996,25.883c-17.757,6.366 -35.515,10.219 -53.273,11.559l-20.103,1.508l0,10.554c0,14.072 -0.168,27.809 -0.503,41.211c-0.335,13.402 -0.837,27.139 -1.507,41.212c-10.052,-0.671 -20.103,-0.838 -30.155,-0.503c-10.051,0.335 -20.103,0.503 -30.154,0.503c-11.727,-0 -14.728,-12.555 -14.728,-12.555Zm148.915,-211.092c0,-6.366 -2.68,-11.727 -8.041,-16.083c-5.361,-4.355 -11.81,-7.957 -19.349,-10.805c-7.539,-2.848 -15.245,-4.858 -23.118,-6.031c-7.874,-1.173 -14.156,-1.759 -18.847,-1.759c-0.67,11.727 -1.257,23.37 -1.759,34.929c-0.503,11.56 -0.754,23.203 -0.754,34.929c5.026,-0.335 11.559,-1.089 19.601,-2.261c8.041,-1.173 15.998,-3.099 23.872,-5.78c7.874,-2.68 14.575,-6.198 20.103,-10.554c5.528,-4.356 8.292,-9.884 8.292,-16.585Z" style="fill:#212121;fill-rule:nonzero;"></path>
            </g>
            <g transform="matrix(1.55828,0,0,1.55828,-930.107,85.6439)">
                <path d="M820,515c-0,-2.761 -2.239,-5 -5,-5c-2.761,0 -5,2.239 -5,5c-0,2.761 -2.239,5 -5,5l-10,0c-2.761,-0 -5,-2.239 -5,-5c-0,-2.761 -2.239,-5 -5,-5c-1.326,0 -2.598,0.527 -3.536,1.464c-0.937,0.938 -1.464,2.21 -1.464,3.536l0,19.379c-0,1.491 0.592,2.921 1.646,3.975c1.054,1.054 2.484,1.646 3.975,1.646l8.758,0c3.105,0 5.621,2.516 5.621,5.621l0,8.758c-0,3.105 -2.516,5.621 -5.621,5.621l-48.758,0c-3.105,-0 -5.621,-2.516 -5.621,-5.621l0,-8.758c0,-3.105 2.516,-5.621 5.621,-5.621l3.758,0c1.491,0 2.921,-0.592 3.975,-1.646c1.054,-1.054 1.646,-2.484 1.646,-3.975l0,-18.758c-0,-1.491 0.592,-2.921 1.646,-3.975c1.054,-1.054 2.484,-1.646 3.975,-1.646l3.758,0c3.105,0 5.621,-2.516 5.621,-5.621l0,-28.758c0,-3.105 2.516,-5.621 5.621,-5.621l28.758,0c3.105,0 5.621,2.516 5.621,5.621l0,8.758c0,1.491 0.592,2.921 1.646,3.975c1.054,1.054 2.484,1.646 3.975,1.646l4.379,-0l-0,25Zm-0,-60c-0.007,-0 -0.014,-0 -0.022,-0l-4.956,-0c-2.774,-0 -5.022,-2.248 -5.022,-5.022l0,-9.956c-0,-2.774 2.248,-5.022 5.022,-5.022l4.956,0c0.008,0 0.015,0 0.022,0l-0,20Zm-0,-35l-4.978,0c-1.332,0 -2.609,-0.529 -3.551,-1.471c-0.942,-0.942 -1.471,-2.219 -1.471,-3.551l0,-9.956c-0,-1.332 0.529,-2.609 1.471,-3.551c0.942,-0.942 2.219,-1.471 3.551,-1.471l4.978,0l-0,20Zm0,400l-8.379,0c-1.491,0 -2.921,-0.592 -3.975,-1.646c-1.054,-1.054 -1.646,-2.484 -1.646,-3.975l-0,-28.758c0,-3.105 2.516,-5.621 5.621,-5.621l8.258,0c0.041,-0 0.081,-0 0.121,-0.001l0,40.001Zm0,-90.5l-6.379,0c-1.491,-0 -2.921,0.592 -3.975,1.646c-1.054,1.054 -1.646,2.484 -1.646,3.975l0,5.258c0,1.491 -0.592,2.921 -1.646,3.975c-1.054,1.054 -2.484,1.646 -3.975,1.646l-6.758,0c-1.491,0 -2.921,-0.592 -3.975,-1.646c-1.054,-1.054 -1.646,-2.484 -1.646,-3.975l0,-21.758c-0,-1.491 0.592,-2.921 1.646,-3.975c1.054,-1.054 2.484,-1.646 3.975,-1.646l24.379,0l0,16.5Zm0,-34.5l-3.679,0c-4.596,-0 -8.321,-3.725 -8.321,-8.321c0,-0.001 0,-0.001 0,-0.002c-0,-1.771 0.703,-3.469 1.956,-4.721c1.252,-1.253 2.95,-1.956 4.721,-1.956c2.758,-0 5.323,-0 5.323,0l0,15Zm-0,-135l-3.996,0c-3.316,-0 -6.004,-2.688 -6.004,-6.004l-0,-22.992c0,-3.316 2.688,-6.004 6.004,-6.004l3.996,0l-0,35Zm-35.022,-140c1.332,-0 2.609,0.529 3.551,1.471c0.942,0.942 1.471,2.219 1.471,3.551l0,19.956c0,1.332 -0.529,2.609 -1.471,3.551c-0.942,0.942 -2.219,1.471 -3.551,1.471l-9.956,0c-1.332,0 -2.609,-0.529 -3.551,-1.471c-0.942,-0.942 -1.471,-2.219 -1.471,-3.551l0,-19.956c-0,-1.332 0.529,-2.609 1.471,-3.551c0.942,-0.942 2.219,-1.471 3.551,-1.471l9.956,0Zm-81.192,10l0,60c0,16.557 -13.443,30 -30,30l-60,0c-16.557,0 -30,-13.443 -30,-30l0,-60c0,-16.557 13.443,-30 30,-30l60,-0c16.557,-0 30,13.443 30,30Zm-10.643,4.678c0,-13.62 -11.058,-24.678 -24.678,-24.678l-49.357,0c-13.621,0 -24.679,11.058 -24.679,24.678l0,50.644c0,13.62 11.058,24.678 24.679,24.678l49.357,0c13.62,0 24.678,-11.058 24.678,-24.678l0,-50.644Zm-26.571,11.715l-0,27.214c-0,6.288 -5.105,11.393 -11.393,11.393l-22.786,0c-6.288,0 -11.392,-5.105 -11.392,-11.393l-0,-27.214c-0,-6.288 5.104,-11.393 11.392,-11.393l22.786,-0c6.288,-0 11.393,5.105 11.393,11.393Zm37.214,293.607l0,60c0,16.557 -13.443,30 -30,30l-60,0c-16.557,0 -30,-13.443 -30,-30l0,-60c0,-16.557 13.443,-30 30,-30l60,0c16.557,0 30,13.443 30,30Zm-10.643,4.678c0,-13.62 -11.058,-24.678 -24.678,-24.678l-49.357,0c-13.621,0 -24.679,11.058 -24.679,24.678l0,50.644c0,13.62 11.058,24.678 24.679,24.678l49.357,0c13.62,0 24.678,-11.058 24.678,-24.678l0,-50.644Zm-26.571,11.715l-0,27.214c-0,6.288 -5.105,11.393 -11.393,11.393l-22.786,0c-6.288,0 -11.392,-5.105 -11.392,-11.393l-0,-27.214c-0,-6.288 5.104,-11.393 11.392,-11.393l22.786,0c6.288,0 11.393,5.105 11.393,11.393Zm73.428,-222.014c-0,3.105 -2.516,5.621 -5.621,5.621l-8.758,0c-3.105,-0 -5.621,-2.516 -5.621,-5.621l0,-38.758c0,-3.105 2.516,-5.621 5.621,-5.621l8.758,0c3.105,0 5.621,2.516 5.621,5.621l0,38.758Zm-45.379,125.621c-3.105,-0 -5.621,-2.516 -5.621,-5.621l0,-8.758c-0,-3.105 -2.516,-5.621 -5.621,-5.621l-6.758,0c-1.491,0 -2.921,-0.592 -3.975,-1.646c-1.054,-1.054 -1.646,-2.484 -1.646,-3.975l0,-1.758c-0,-1.491 0.592,-2.921 1.646,-3.975c1.054,-1.054 2.484,-1.646 3.975,-1.646l6.758,0c3.105,0 5.621,-2.516 5.621,-5.621l0,-7.758c-0,-3.105 -2.516,-5.621 -5.621,-5.621l-6.758,0c-3.105,0 -5.621,-2.516 -5.621,-5.621l0,-5.758c0,-3.105 2.516,-5.621 5.621,-5.621l0.379,0c3.038,-0 5.5,-2.462 5.5,-5.5c0,-3.038 2.462,-5.5 5.5,-5.5l6.379,-0c3.105,-0 5.621,-2.516 5.621,-5.621l0,-2.881c-0,-1.458 -0.579,-2.857 -1.61,-3.888c-1.031,-1.031 -2.43,-1.61 -3.888,-1.61l-0.002,0c-3.038,-0 -5.5,-2.462 -5.5,-5.5l0,-14.879c0,-3.105 2.516,-5.621 5.621,-5.621l5.758,0c3.105,0 5.621,2.516 5.621,5.621l0,8.758c0,3.105 2.516,5.621 5.621,5.621l22.758,-0c3.105,0 5.621,2.516 5.621,5.621l0,8.758c-0,3.105 -2.516,5.621 -5.621,5.621l-22.879,-0c-1.459,-0 -2.858,0.579 -3.889,1.611c-1.032,1.031 -1.611,2.43 -1.611,3.889c0,1.459 0.579,2.858 1.611,3.889c1.031,1.032 2.43,1.611 3.889,1.611l22.879,0c3.105,0 5.621,2.516 5.621,5.621l0,5.758c-0,3.105 -2.516,5.621 -5.621,5.621l-24.129,0c-2.347,-0 -4.25,-1.903 -4.25,-4.25c-0,-2.347 -1.903,-4.25 -4.25,-4.25l-3.5,0c-2.347,0 -4.25,1.903 -4.25,4.25c0,2.347 1.903,4.25 4.25,4.25l2.129,0c3.105,-0 5.621,2.516 5.621,5.621l0,7.758c0,3.105 2.516,5.621 5.621,5.621l2.758,0c3.105,0 5.621,2.516 5.621,5.621l0,1.758c-0,3.105 2.516,5.621 5.621,5.621l8.758,0c3.105,0 5.621,2.516 5.621,5.621l0,8.758c-0,3.105 -2.516,5.621 -5.621,5.621l-39.758,0Zm-0.621,-23c-0,0.796 0.316,1.559 0.879,2.121c0.562,0.563 1.325,0.879 2.121,0.879c0.796,-0 1.559,-0.316 2.121,-0.879c0.563,-0.562 0.879,-1.325 0.879,-2.121l0,-7c0,-0.796 -0.316,-1.559 -0.879,-2.121c-0.562,-0.563 -1.325,-0.879 -2.121,-0.879c-0.796,0 -1.559,0.316 -2.121,0.879c-0.563,0.562 -0.879,1.325 -0.879,2.121l0,7Zm61,52.379c0,1.491 -0.592,2.921 -1.646,3.975c-1.054,1.054 -2.484,1.646 -3.975,1.646l-3.758,0c-1.491,-0 -2.921,0.592 -3.975,1.646c-1.054,1.054 -1.646,2.484 -1.646,3.975l0,6.008c0,1.491 -0.592,2.921 -1.646,3.975c-1.054,1.054 -2.484,1.646 -3.975,1.646l-8.758,0c-1.491,-0 -2.921,-0.592 -3.975,-1.646c-1.054,-1.054 -1.646,-2.484 -1.646,-3.975l0,-6.008c0,-1.491 -0.592,-2.921 -1.646,-3.975c-1.054,-1.054 -2.484,-1.646 -3.975,-1.646l-39.758,-0c-1.491,-0 -2.921,-0.592 -3.975,-1.646c-1.054,-1.054 -1.646,-2.484 -1.646,-3.975l0,-23.758c0,-1.491 -0.592,-2.921 -1.646,-3.975c-1.054,-1.054 -2.484,-1.646 -3.975,-1.646l-3.758,0c-1.491,0 -2.921,-0.592 -3.975,-1.646c-1.054,-1.054 -1.646,-2.484 -1.646,-3.975l0,-5.258c-0,-3.105 2.516,-5.621 5.621,-5.621l5.758,0c3.105,0 5.621,2.516 5.621,5.621l0,5.258c-0,1.491 0.592,2.921 1.646,3.975c1.054,1.054 2.484,1.646 3.975,1.646l6.758,0c3.105,-0 5.621,2.516 5.621,5.621l0,7.258c0,3.105 2.516,5.621 5.621,5.621l54.758,0c1.491,-0 2.921,0.592 3.975,1.646c1.054,1.054 1.646,2.484 1.646,3.975l0,5.258Zm0,11.242c-0,-1.491 0.592,-2.921 1.646,-3.975c1.054,-1.054 2.484,-1.646 3.975,-1.646l23.758,0c1.491,-0 2.921,0.592 3.975,1.646c1.054,1.054 1.646,2.484 1.646,3.975l0,6.008c0,1.491 -0.592,2.921 -1.646,3.975c-1.054,1.054 -2.484,1.646 -3.975,1.646l-5.758,0c-1.491,0 -2.921,0.592 -3.975,1.646c-1.054,1.054 -1.646,2.484 -1.646,3.975l0,6.008c0,1.491 -0.592,2.921 -1.646,3.975c-1.054,1.054 -2.484,1.646 -3.975,1.646l-6.758,0c-1.491,0 -2.921,-0.592 -3.975,-1.646c-1.054,-1.054 -1.646,-2.484 -1.646,-3.975l0,-23.258Zm-9.379,99.379c-3.105,-0 -5.621,2.516 -5.621,5.621l0,8.758c-0,3.105 -2.516,5.621 -5.621,5.621l-8.758,0c-3.105,-0 -5.621,-2.516 -5.621,-5.621l0,-28.758c0,-1.491 0.592,-2.921 1.646,-3.975c1.054,-1.054 2.484,-1.646 3.975,-1.646l61.758,0c1.491,-0 2.921,0.592 3.975,1.646c1.054,1.054 1.646,2.484 1.646,3.975l0,32.758c-0,3.105 2.516,5.621 5.621,5.621l5.758,0c3.105,0 5.621,2.516 5.621,5.621l-0,0.758c0,1.491 -0.592,2.921 -1.646,3.975c-1.054,1.054 -2.484,1.646 -3.975,1.646l-41.258,0c-1.491,-0 -2.921,-0.592 -3.975,-1.646c-1.054,-1.054 -1.646,-2.484 -1.646,-3.975l-0,-0.758c-0,-3.105 2.516,-5.621 5.621,-5.621l6.258,0c3.105,-0 5.621,-2.516 5.621,-5.621l0,-12.758c0,-1.491 -0.592,-2.921 -1.646,-3.975c-1.054,-1.054 -2.484,-1.646 -3.975,-1.646l-23.758,0Zm21.758,-54c1.491,-0 2.921,0.592 3.975,1.646c1.054,1.054 1.646,2.484 1.646,3.975l0,9.758c0,1.491 -0.592,2.921 -1.646,3.975c-1.054,1.054 -2.484,1.646 -3.975,1.646l-6.758,0c-1.491,0 -2.921,-0.592 -3.975,-1.646c-1.054,-1.054 -1.646,-2.484 -1.646,-3.975l0,-9.758c-0,-1.491 0.592,-2.921 1.646,-3.975c1.054,-1.054 2.484,-1.646 3.975,-1.646l6.758,0Zm-12.401,-326c1.332,-0 2.609,0.529 3.551,1.471c0.942,0.942 1.471,2.219 1.471,3.551l-0,19.956c0,1.332 -0.529,2.609 -1.471,3.551c-0.942,0.942 -2.219,1.471 -3.551,1.471l-9.956,0c-1.332,0 -2.609,-0.529 -3.551,-1.471c-0.942,-0.942 -1.471,-2.219 -1.471,-3.551l0,-19.956c-0,-1.332 0.529,-2.609 1.471,-3.551c0.942,-0.942 2.219,-1.471 3.551,-1.471l9.956,0Zm-20,40c1.332,-0 2.609,0.529 3.551,1.471c0.942,0.942 1.471,2.219 1.471,3.551l0,9.956c0,1.332 -0.529,2.609 -1.471,3.551c-0.942,0.942 -2.219,1.471 -3.551,1.471l-9.956,0c-1.332,0 -2.609,-0.529 -3.551,-1.471c-0.942,-0.942 -1.471,-2.219 -1.471,-3.551l0,-9.956c-0,-1.332 0.529,-2.609 1.471,-3.551c0.942,-0.942 2.219,-1.471 3.551,-1.471l9.956,0Zm-104.978,211.599c0,-1.75 -0.695,-3.429 -1.933,-4.666c-1.237,-1.238 -2.916,-1.933 -4.666,-1.933l-37.921,0c-3.026,-0 -5.48,-2.454 -5.48,-5.48l0,-7.609c-0,-1.567 0.623,-3.071 1.731,-4.18c1.109,-1.108 2.613,-1.731 4.18,-1.731l8.005,0c1.613,0 3.161,-0.641 4.302,-1.782c1.141,-1.141 1.782,-2.689 1.782,-4.302l0,-43.783c0,-2.835 2.298,-5.133 5.133,-5.133l8.319,0c1.737,0 3.402,-0.69 4.63,-1.918c1.228,-1.228 1.918,-2.893 1.918,-4.63l-0,-18.36c-0,-3.364 -2.728,-6.092 -6.092,-6.092l-9.475,0c-1.176,0 -2.303,-0.467 -3.135,-1.298c-0.831,-0.832 -1.298,-1.959 -1.298,-3.135l0,-9.305c0,-1.661 0.66,-3.253 1.834,-4.428c1.175,-1.174 2.767,-1.834 4.428,-1.834l26.449,-0c1.933,-0 3.787,0.768 5.154,2.135c1.367,1.367 2.135,3.221 2.135,5.154l0,56.085c-0,0.962 0.382,1.884 1.062,2.564c0.68,0.68 1.602,1.062 2.564,1.062l4.164,0c1.647,-0 3.226,0.654 4.391,1.819c1.165,1.165 1.819,2.744 1.819,4.391l0,8.828c-0,2.112 -0.839,4.137 -2.332,5.63c-1.493,1.493 -3.518,2.332 -5.63,2.332l-19.941,0c-3.367,0 -6.097,2.73 -6.097,6.097l0,5.245c-0,1.235 0.491,2.42 1.364,3.294c0.874,0.873 2.059,1.364 3.294,1.364l9.055,0c3.472,0 6.287,2.815 6.287,6.287l0,7.713l6.872,0c3.937,-0 7.128,3.191 7.128,7.128l0,7.433c-0,3.004 -2.435,5.439 -5.439,5.439l-12.828,0c-1.52,-0 -2.979,-0.604 -4.054,-1.679c-1.075,-1.075 -1.679,-2.534 -1.679,-4.054l0,-2.668Zm-36.072,-111.599c1.611,-0 3.155,0.64 4.294,1.778c1.138,1.139 1.778,2.683 1.778,4.294l0,19.031c0,1.564 -0.621,3.064 -1.727,4.17c-1.106,1.106 -2.606,1.727 -4.17,1.727l-10.012,0c-1.085,-0 -2.125,-0.431 -2.893,-1.198c-0.767,-0.768 -1.198,-1.808 -1.198,-2.893l-0,-22.538c-0,-1.159 0.461,-2.271 1.28,-3.091c0.82,-0.819 1.932,-1.28 3.091,-1.28l9.557,0Zm20.523,120c3.065,0 5.549,2.484 5.549,5.549l0,6.028c-0,2.443 -1.98,4.423 -4.423,4.423l-31.299,0c-1.135,0 -2.223,-0.451 -3.025,-1.253c-0.802,-0.802 -1.253,-1.89 -1.253,-3.025l0,-7.894c0,-2.114 1.714,-3.828 3.828,-3.828l30.623,0Z" style="fill:#212121;"></path>
            </g>
            <g transform="matrix(1.62645,0,0,1.55828,-964.097,70.0611)">
                <path d="M590,434.802l0,35.198l-291.257,0c-15.875,-0 -28.743,-13.431 -28.743,-30c0,-16.569 12.868,-30 28.743,-30l318.562,-0c-13.014,6.088 -23.584,13.537 -27.305,24.802Zm22.515,95.198l-263.473,-0c-5.717,0 -11.2,-2.371 -15.243,-6.59c-4.043,-4.22 -6.314,-9.943 -6.314,-15.91c0,-12.426 9.651,-22.5 21.557,-22.5l237.038,-0l-0,22.485c4.326,10.004 14.322,16.849 26.435,22.515Zm-140.81,240l-115.435,-0c-13.228,-0 -23.951,-11.192 -23.951,-24.998l0,-0.004c0,-13.806 10.723,-24.998 23.951,-24.998l263.431,-0c-16.267,7.609 -28.715,17.344 -28.743,34l0,68.03c5.08,7.608 13.768,13.206 23.952,17.97l-88.275,-0c-30.617,0 -55.437,-25.906 -55.437,-57.863l-0,-4.274c-0,-2.667 0.172,-5.292 0.507,-7.863Zm114.463,-200l-0,30l-366.378,-0c-3.812,0 -7.467,-1.58 -10.162,-4.393c-2.695,-2.813 -4.209,-6.629 -4.209,-10.607c-0,-8.284 6.434,-15 14.371,-15l366.378,-0Zm4.79,86l0,19l-243.257,-0c-2.413,0 -4.728,-1.001 -6.435,-2.782c-1.706,-1.781 -2.665,-4.197 -2.665,-6.716l0,-0.004c0,-2.519 0.959,-4.935 2.665,-6.716c1.707,-1.781 4.022,-2.782 6.435,-2.782l243.257,-0Zm-3.832,34l-0,16l-157.128,-0c-4.232,0 -7.663,-3.581 -7.663,-7.998l0,-0.002c0,-2.122 0.808,-4.157 2.245,-5.657c1.438,-1.5 3.387,-2.343 5.42,-2.343l157.126,-0Z" style="fill:#212121;"></path>
            </g>
        </g>
    </g>
</svg></svg></g></g></svg></g><g id="dark-icon"><svg xmlns="http://www.w3.org/2000/svg" version="1.1" xmlns:xlink="http://www.w3.org/1999/xlink" xmlns:svgjs="http://svgjs.dev/svgjs" width="1000" height="1000"><g><g transform="matrix(0.2648305084745763,0,0,0.2648305084745763,0,268.9353813559321)"><svg xmlns="http://www.w3.org/2000/svg" version="1.1" xmlns:xlink="http://www.w3.org/1999/xlink" xmlns:svgjs="http://svgjs.dev/svgjs" width="3776px" height="1745px"><svg width="3776px" height="1745px" version="1.1" xmlns="http://www.w3.org/2000/svg" xmlns:xlink="http://www.w3.org/1999/xlink" xml:space="preserve" xmlns:serif="http://www.serif.com/" style="fill-rule:evenodd;clip-rule:evenodd;stroke-linejoin:round;stroke-miterlimit:2;">
    <g transform="matrix(4.16667,0,0,4.16667,-450.727,-5377.85)">
        <g transform="matrix(0.608178,0,0,0.608178,491.322,864.945)">
            <g transform="matrix(1.95262,0,0,1.95262,-664.879,215.391)">
                <path d="M534.525,587.948l-16.888,0l-2.317,-31.921l6.024,-0c2.872,-0 5.201,-2.329 5.201,-5.201c-0,-7.068 -0,-19.731 -0,-27.649c-0,-1.871 -0.743,-3.664 -2.066,-4.987c-1.323,-1.322 -3.116,-2.065 -4.987,-2.065c-0.567,-0 -0.928,-0 -0.928,-0l-0.798,-13.567l27.844,-0c1.293,-0 2.533,-0.514 3.448,-1.428c0.914,-0.915 1.428,-2.155 1.428,-3.448l-0,-4.19c-0,-2.926 -2.373,-5.299 -5.299,-5.299c-9.075,-0 -26.623,-0 -26.623,-0l0,-129.283l-3.192,-6.385l1.348,0c1.039,0 1.886,-0.834 1.9,-1.873c0.042,-1.872 0.077,-4.673 -0.056,-6.107l0,-19.951l17.575,-0c3.516,-0 6.366,-2.85 6.366,-6.367c0,-5.072 0,-12.067 0,-16.698c0,-2.688 -2.178,-4.867 -4.866,-4.867c-6.999,0 -19.075,0 -19.075,0l0,-15.96l9.856,-0c0.773,-0 1.514,-0.307 2.06,-0.853c0.546,-0.547 0.853,-1.287 0.853,-2.06c-0,-2.074 -0,-4.823 -0,-6.746c-0,-0.613 -0.244,-1.201 -0.677,-1.635c-0.434,-0.434 -1.022,-0.677 -1.635,-0.677c-3.735,-0 -10.684,-0 -10.684,-0c0,-0 0.166,-10.648 0.227,-15.961c13.932,0.256 30.102,-2.815 37.976,-3.317c7.874,-0.503 15.496,-0.838 22.867,-1.005c7.371,-0.168 13.57,-0.252 18.595,-0.252c16.083,0 32.333,1.005 48.75,3.016c16.418,2.01 32.165,5.779 47.243,11.308c15.077,5.528 28.898,13.151 41.462,22.867c12.565,9.716 23.035,22.281 31.411,37.693c4.356,8.377 7.79,16.92 10.303,25.632c2.513,8.711 3.769,17.757 3.769,27.139c0,19.768 -4.439,37.442 -13.318,53.022c-8.879,15.58 -20.438,28.814 -34.678,39.703c-14.239,10.889 -30.238,19.517 -47.996,25.883c-17.757,6.366 -35.515,10.219 -53.273,11.559l-20.103,1.508l0,10.554c0,14.072 -0.168,27.809 -0.503,41.211c-0.335,13.402 -0.837,27.139 -1.507,41.212c-10.052,-0.671 -20.103,-0.838 -30.155,-0.503c-10.051,0.335 -20.103,0.503 -30.154,0.503c-11.727,-0 -14.728,-12.555 -14.728,-12.555Zm148.915,-211.092c0,-6.366 -2.68,-11.727 -8.041,-16.083c-5.361,-4.355 -11.81,-7.957 -19.349,-10.805c-7.539,-2.848 -15.245,-4.858 -23.118,-6.031c-7.874,-1.173 -14.156,-1.759 -18.847,-1.759c-0.67,11.727 -1.257,23.37 -1.759,34.929c-0.503,11.56 -0.754,23.203 -0.754,34.929c5.026,-0.335 11.559,-1.089 19.601,-2.261c8.041,-1.173 15.998,-3.099 23.872,-5.78c7.874,-2.68 14.575,-6.198 20.103,-10.554c5.528,-4.356 8.292,-9.884 8.292,-16.585Z" style="fill:#fff;fill-rule:nonzero;"></path>
            </g>
            <g transform="matrix(1.55828,0,0,1.55828,-930.107,85.6439)">
                <path d="M820,515c-0,-2.761 -2.239,-5 -5,-5c-2.761,0 -5,2.239 -5,5c-0,2.761 -2.239,5 -5,5l-10,0c-2.761,-0 -5,-2.239 -5,-5c-0,-2.761 -2.239,-5 -5,-5c-1.326,0 -2.598,0.527 -3.536,1.464c-0.937,0.938 -1.464,2.21 -1.464,3.536l0,19.379c-0,1.491 0.592,2.921 1.646,3.975c1.054,1.054 2.484,1.646 3.975,1.646l8.758,0c3.105,0 5.621,2.516 5.621,5.621l0,8.758c-0,3.105 -2.516,5.621 -5.621,5.621l-48.758,0c-3.105,-0 -5.621,-2.516 -5.621,-5.621l0,-8.758c0,-3.105 2.516,-5.621 5.621,-5.621l3.758,0c1.491,0 2.921,-0.592 3.975,-1.646c1.054,-1.054 1.646,-2.484 1.646,-3.975l0,-18.758c-0,-1.491 0.592,-2.921 1.646,-3.975c1.054,-1.054 2.484,-1.646 3.975,-1.646l3.758,0c3.105,0 5.621,-2.516 5.621,-5.621l0,-28.758c0,-3.105 2.516,-5.621 5.621,-5.621l28.758,0c3.105,0 5.621,2.516 5.621,5.621l0,8.758c0,1.491 0.592,2.921 1.646,3.975c1.054,1.054 2.484,1.646 3.975,1.646l4.379,-0l-0,25Zm-0,-60c-0.007,-0 -0.014,-0 -0.022,-0l-4.956,-0c-2.774,-0 -5.022,-2.248 -5.022,-5.022l0,-9.956c-0,-2.774 2.248,-5.022 5.022,-5.022l4.956,0c0.008,0 0.015,0 0.022,0l-0,20Zm-0,-35l-4.978,0c-1.332,0 -2.609,-0.529 -3.551,-1.471c-0.942,-0.942 -1.471,-2.219 -1.471,-3.551l0,-9.956c-0,-1.332 0.529,-2.609 1.471,-3.551c0.942,-0.942 2.219,-1.471 3.551,-1.471l4.978,0l-0,20Zm0,400l-8.379,0c-1.491,0 -2.921,-0.592 -3.975,-1.646c-1.054,-1.054 -1.646,-2.484 -1.646,-3.975l-0,-28.758c0,-3.105 2.516,-5.621 5.621,-5.621l8.258,0c0.041,-0 0.081,-0 0.121,-0.001l0,40.001Zm0,-90.5l-6.379,0c-1.491,-0 -2.921,0.592 -3.975,1.646c-1.054,1.054 -1.646,2.484 -1.646,3.975l0,5.258c0,1.491 -0.592,2.921 -1.646,3.975c-1.054,1.054 -2.484,1.646 -3.975,1.646l-6.758,0c-1.491,0 -2.921,-0.592 -3.975,-1.646c-1.054,-1.054 -1.646,-2.484 -1.646,-3.975l0,-21.758c-0,-1.491 0.592,-2.921 1.646,-3.975c1.054,-1.054 2.484,-1.646 3.975,-1.646l24.379,0l0,16.5Zm0,-34.5l-3.679,0c-4.596,-0 -8.321,-3.725 -8.321,-8.321c0,-0.001 0,-0.001 0,-0.002c-0,-1.771 0.703,-3.469 1.956,-4.721c1.252,-1.253 2.95,-1.956 4.721,-1.956c2.758,-0 5.323,-0 5.323,0l0,15Zm-0,-135l-3.996,0c-3.316,-0 -6.004,-2.688 -6.004,-6.004l-0,-22.992c0,-3.316 2.688,-6.004 6.004,-6.004l3.996,0l-0,35Zm-35.022,-140c1.332,-0 2.609,0.529 3.551,1.471c0.942,0.942 1.471,2.219 1.471,3.551l0,19.956c0,1.332 -0.529,2.609 -1.471,3.551c-0.942,0.942 -2.219,1.471 -3.551,1.471l-9.956,0c-1.332,0 -2.609,-0.529 -3.551,-1.471c-0.942,-0.942 -1.471,-2.219 -1.471,-3.551l0,-19.956c-0,-1.332 0.529,-2.609 1.471,-3.551c0.942,-0.942 2.219,-1.471 3.551,-1.471l9.956,0Zm-81.192,10l0,60c0,16.557 -13.443,30 -30,30l-60,0c-16.557,0 -30,-13.443 -30,-30l0,-60c0,-16.557 13.443,-30 30,-30l60,-0c16.557,-0 30,13.443 30,30Zm-10.643,4.678c0,-13.62 -11.058,-24.678 -24.678,-24.678l-49.357,0c-13.621,0 -24.679,11.058 -24.679,24.678l0,50.644c0,13.62 11.058,24.678 24.679,24.678l49.357,0c13.62,0 24.678,-11.058 24.678,-24.678l0,-50.644Zm-26.571,11.715l-0,27.214c-0,6.288 -5.105,11.393 -11.393,11.393l-22.786,0c-6.288,0 -11.392,-5.105 -11.392,-11.393l-0,-27.214c-0,-6.288 5.104,-11.393 11.392,-11.393l22.786,-0c6.288,-0 11.393,5.105 11.393,11.393Zm37.214,293.607l0,60c0,16.557 -13.443,30 -30,30l-60,0c-16.557,0 -30,-13.443 -30,-30l0,-60c0,-16.557 13.443,-30 30,-30l60,0c16.557,0 30,13.443 30,30Zm-10.643,4.678c0,-13.62 -11.058,-24.678 -24.678,-24.678l-49.357,0c-13.621,0 -24.679,11.058 -24.679,24.678l0,50.644c0,13.62 11.058,24.678 24.679,24.678l49.357,0c13.62,0 24.678,-11.058 24.678,-24.678l0,-50.644Zm-26.571,11.715l-0,27.214c-0,6.288 -5.105,11.393 -11.393,11.393l-22.786,0c-6.288,0 -11.392,-5.105 -11.392,-11.393l-0,-27.214c-0,-6.288 5.104,-11.393 11.392,-11.393l22.786,0c6.288,0 11.393,5.105 11.393,11.393Zm73.428,-222.014c-0,3.105 -2.516,5.621 -5.621,5.621l-8.758,0c-3.105,-0 -5.621,-2.516 -5.621,-5.621l0,-38.758c0,-3.105 2.516,-5.621 5.621,-5.621l8.758,0c3.105,0 5.621,2.516 5.621,5.621l0,38.758Zm-45.379,125.621c-3.105,-0 -5.621,-2.516 -5.621,-5.621l0,-8.758c-0,-3.105 -2.516,-5.621 -5.621,-5.621l-6.758,0c-1.491,0 -2.921,-0.592 -3.975,-1.646c-1.054,-1.054 -1.646,-2.484 -1.646,-3.975l0,-1.758c-0,-1.491 0.592,-2.921 1.646,-3.975c1.054,-1.054 2.484,-1.646 3.975,-1.646l6.758,0c3.105,0 5.621,-2.516 5.621,-5.621l0,-7.758c-0,-3.105 -2.516,-5.621 -5.621,-5.621l-6.758,0c-3.105,0 -5.621,-2.516 -5.621,-5.621l0,-5.758c0,-3.105 2.516,-5.621 5.621,-5.621l0.379,0c3.038,-0 5.5,-2.462 5.5,-5.5c0,-3.038 2.462,-5.5 5.5,-5.5l6.379,-0c3.105,-0 5.621,-2.516 5.621,-5.621l0,-2.881c-0,-1.458 -0.579,-2.857 -1.61,-3.888c-1.031,-1.031 -2.43,-1.61 -3.888,-1.61l-0.002,0c-3.038,-0 -5.5,-2.462 -5.5,-5.5l0,-14.879c0,-3.105 2.516,-5.621 5.621,-5.621l5.758,0c3.105,0 5.621,2.516 5.621,5.621l0,8.758c0,3.105 2.516,5.621 5.621,5.621l22.758,-0c3.105,0 5.621,2.516 5.621,5.621l0,8.758c-0,3.105 -2.516,5.621 -5.621,5.621l-22.879,-0c-1.459,-0 -2.858,0.579 -3.889,1.611c-1.032,1.031 -1.611,2.43 -1.611,3.889c0,1.459 0.579,2.858 1.611,3.889c1.031,1.032 2.43,1.611 3.889,1.611l22.879,0c3.105,0 5.621,2.516 5.621,5.621l0,5.758c-0,3.105 -2.516,5.621 -5.621,5.621l-24.129,0c-2.347,-0 -4.25,-1.903 -4.25,-4.25c-0,-2.347 -1.903,-4.25 -4.25,-4.25l-3.5,0c-2.347,0 -4.25,1.903 -4.25,4.25c0,2.347 1.903,4.25 4.25,4.25l2.129,0c3.105,-0 5.621,2.516 5.621,5.621l0,7.758c0,3.105 2.516,5.621 5.621,5.621l2.758,0c3.105,0 5.621,2.516 5.621,5.621l0,1.758c-0,3.105 2.516,5.621 5.621,5.621l8.758,0c3.105,0 5.621,2.516 5.621,5.621l0,8.758c-0,3.105 -2.516,5.621 -5.621,5.621l-39.758,0Zm-0.621,-23c-0,0.796 0.316,1.559 0.879,2.121c0.562,0.563 1.325,0.879 2.121,0.879c0.796,-0 1.559,-0.316 2.121,-0.879c0.563,-0.562 0.879,-1.325 0.879,-2.121l0,-7c0,-0.796 -0.316,-1.559 -0.879,-2.121c-0.562,-0.563 -1.325,-0.879 -2.121,-0.879c-0.796,0 -1.559,0.316 -2.121,0.879c-0.563,0.562 -0.879,1.325 -0.879,2.121l0,7Zm61,52.379c0,1.491 -0.592,2.921 -1.646,3.975c-1.054,1.054 -2.484,1.646 -3.975,1.646l-3.758,0c-1.491,-0 -2.921,0.592 -3.975,1.646c-1.054,1.054 -1.646,2.484 -1.646,3.975l0,6.008c0,1.491 -0.592,2.921 -1.646,3.975c-1.054,1.054 -2.484,1.646 -3.975,1.646l-8.758,0c-1.491,-0 -2.921,-0.592 -3.975,-1.646c-1.054,-1.054 -1.646,-2.484 -1.646,-3.975l0,-6.008c0,-1.491 -0.592,-2.921 -1.646,-3.975c-1.054,-1.054 -2.484,-1.646 -3.975,-1.646l-39.758,-0c-1.491,-0 -2.921,-0.592 -3.975,-1.646c-1.054,-1.054 -1.646,-2.484 -1.646,-3.975l0,-23.758c0,-1.491 -0.592,-2.921 -1.646,-3.975c-1.054,-1.054 -2.484,-1.646 -3.975,-1.646l-3.758,0c-1.491,0 -2.921,-0.592 -3.975,-1.646c-1.054,-1.054 -1.646,-2.484 -1.646,-3.975l0,-5.258c-0,-3.105 2.516,-5.621 5.621,-5.621l5.758,0c3.105,0 5.621,2.516 5.621,5.621l0,5.258c-0,1.491 0.592,2.921 1.646,3.975c1.054,1.054 2.484,1.646 3.975,1.646l6.758,0c3.105,-0 5.621,2.516 5.621,5.621l0,7.258c0,3.105 2.516,5.621 5.621,5.621l54.758,0c1.491,-0 2.921,0.592 3.975,1.646c1.054,1.054 1.646,2.484 1.646,3.975l0,5.258Zm0,11.242c-0,-1.491 0.592,-2.921 1.646,-3.975c1.054,-1.054 2.484,-1.646 3.975,-1.646l23.758,0c1.491,-0 2.921,0.592 3.975,1.646c1.054,1.054 1.646,2.484 1.646,3.975l0,6.008c0,1.491 -0.592,2.921 -1.646,3.975c-1.054,1.054 -2.484,1.646 -3.975,1.646l-5.758,0c-1.491,0 -2.921,0.592 -3.975,1.646c-1.054,1.054 -1.646,2.484 -1.646,3.975l0,6.008c0,1.491 -0.592,2.921 -1.646,3.975c-1.054,1.054 -2.484,1.646 -3.975,1.646l-6.758,0c-1.491,0 -2.921,-0.592 -3.975,-1.646c-1.054,-1.054 -1.646,-2.484 -1.646,-3.975l0,-23.258Zm-9.379,99.379c-3.105,-0 -5.621,2.516 -5.621,5.621l0,8.758c-0,3.105 -2.516,5.621 -5.621,5.621l-8.758,0c-3.105,-0 -5.621,-2.516 -5.621,-5.621l0,-28.758c0,-1.491 0.592,-2.921 1.646,-3.975c1.054,-1.054 2.484,-1.646 3.975,-1.646l61.758,0c1.491,-0 2.921,0.592 3.975,1.646c1.054,1.054 1.646,2.484 1.646,3.975l0,32.758c-0,3.105 2.516,5.621 5.621,5.621l5.758,0c3.105,0 5.621,2.516 5.621,5.621l-0,0.758c0,1.491 -0.592,2.921 -1.646,3.975c-1.054,1.054 -2.484,1.646 -3.975,1.646l-41.258,0c-1.491,-0 -2.921,-0.592 -3.975,-1.646c-1.054,-1.054 -1.646,-2.484 -1.646,-3.975l-0,-0.758c-0,-3.105 2.516,-5.621 5.621,-5.621l6.258,0c3.105,-0 5.621,-2.516 5.621,-5.621l0,-12.758c0,-1.491 -0.592,-2.921 -1.646,-3.975c-1.054,-1.054 -2.484,-1.646 -3.975,-1.646l-23.758,0Zm21.758,-54c1.491,-0 2.921,0.592 3.975,1.646c1.054,1.054 1.646,2.484 1.646,3.975l0,9.758c0,1.491 -0.592,2.921 -1.646,3.975c-1.054,1.054 -2.484,1.646 -3.975,1.646l-6.758,0c-1.491,0 -2.921,-0.592 -3.975,-1.646c-1.054,-1.054 -1.646,-2.484 -1.646,-3.975l0,-9.758c-0,-1.491 0.592,-2.921 1.646,-3.975c1.054,-1.054 2.484,-1.646 3.975,-1.646l6.758,0Zm-12.401,-326c1.332,-0 2.609,0.529 3.551,1.471c0.942,0.942 1.471,2.219 1.471,3.551l-0,19.956c0,1.332 -0.529,2.609 -1.471,3.551c-0.942,0.942 -2.219,1.471 -3.551,1.471l-9.956,0c-1.332,0 -2.609,-0.529 -3.551,-1.471c-0.942,-0.942 -1.471,-2.219 -1.471,-3.551l0,-19.956c-0,-1.332 0.529,-2.609 1.471,-3.551c0.942,-0.942 2.219,-1.471 3.551,-1.471l9.956,0Zm-20,40c1.332,-0 2.609,0.529 3.551,1.471c0.942,0.942 1.471,2.219 1.471,3.551l0,9.956c0,1.332 -0.529,2.609 -1.471,3.551c-0.942,0.942 -2.219,1.471 -3.551,1.471l-9.956,0c-1.332,0 -2.609,-0.529 -3.551,-1.471c-0.942,-0.942 -1.471,-2.219 -1.471,-3.551l0,-9.956c-0,-1.332 0.529,-2.609 1.471,-3.551c0.942,-0.942 2.219,-1.471 3.551,-1.471l9.956,0Zm-104.978,211.599c0,-1.75 -0.695,-3.429 -1.933,-4.666c-1.237,-1.238 -2.916,-1.933 -4.666,-1.933l-37.921,0c-3.026,-0 -5.48,-2.454 -5.48,-5.48l0,-7.609c-0,-1.567 0.623,-3.071 1.731,-4.18c1.109,-1.108 2.613,-1.731 4.18,-1.731l8.005,0c1.613,0 3.161,-0.641 4.302,-1.782c1.141,-1.141 1.782,-2.689 1.782,-4.302l0,-43.783c0,-2.835 2.298,-5.133 5.133,-5.133l8.319,0c1.737,0 3.402,-0.69 4.63,-1.918c1.228,-1.228 1.918,-2.893 1.918,-4.63l-0,-18.36c-0,-3.364 -2.728,-6.092 -6.092,-6.092l-9.475,0c-1.176,0 -2.303,-0.467 -3.135,-1.298c-0.831,-0.832 -1.298,-1.959 -1.298,-3.135l0,-9.305c0,-1.661 0.66,-3.253 1.834,-4.428c1.175,-1.174 2.767,-1.834 4.428,-1.834l26.449,-0c1.933,-0 3.787,0.768 5.154,2.135c1.367,1.367 2.135,3.221 2.135,5.154l0,56.085c-0,0.962 0.382,1.884 1.062,2.564c0.68,0.68 1.602,1.062 2.564,1.062l4.164,0c1.647,-0 3.226,0.654 4.391,1.819c1.165,1.165 1.819,2.744 1.819,4.391l0,8.828c-0,2.112 -0.839,4.137 -2.332,5.63c-1.493,1.493 -3.518,2.332 -5.63,2.332l-19.941,0c-3.367,0 -6.097,2.73 -6.097,6.097l0,5.245c-0,1.235 0.491,2.42 1.364,3.294c0.874,0.873 2.059,1.364 3.294,1.364l9.055,0c3.472,0 6.287,2.815 6.287,6.287l0,7.713l6.872,0c3.937,-0 7.128,3.191 7.128,7.128l0,7.433c-0,3.004 -2.435,5.439 -5.439,5.439l-12.828,0c-1.52,-0 -2.979,-0.604 -4.054,-1.679c-1.075,-1.075 -1.679,-2.534 -1.679,-4.054l0,-2.668Zm-36.072,-111.599c1.611,-0 3.155,0.64 4.294,1.778c1.138,1.139 1.778,2.683 1.778,4.294l0,19.031c0,1.564 -0.621,3.064 -1.727,4.17c-1.106,1.106 -2.606,1.727 -4.17,1.727l-10.012,0c-1.085,-0 -2.125,-0.431 -2.893,-1.198c-0.767,-0.768 -1.198,-1.808 -1.198,-2.893l-0,-22.538c-0,-1.159 0.461,-2.271 1.28,-3.091c0.82,-0.819 1.932,-1.28 3.091,-1.28l9.557,0Zm20.523,120c3.065,0 5.549,2.484 5.549,5.549l0,6.028c-0,2.443 -1.98,4.423 -4.423,4.423l-31.299,0c-1.135,0 -2.223,-0.451 -3.025,-1.253c-0.802,-0.802 -1.253,-1.89 -1.253,-3.025l0,-7.894c0,-2.114 1.714,-3.828 3.828,-3.828l30.623,0Z" style="fill:#fff;"></path>
            </g>
            <g transform="matrix(1.62645,0,0,1.55828,-964.097,70.0611)">
                <path d="M590,434.802l0,35.198l-291.257,0c-15.875,-0 -28.743,-13.431 -28.743,-30c0,-16.569 12.868,-30 28.743,-30l318.562,-0c-13.014,6.088 -23.584,13.537 -27.305,24.802Zm22.515,95.198l-263.473,-0c-5.717,0 -11.2,-2.371 -15.243,-6.59c-4.043,-4.22 -6.314,-9.943 -6.314,-15.91c0,-12.426 9.651,-22.5 21.557,-22.5l237.038,-0l-0,22.485c4.326,10.004 14.322,16.849 26.435,22.515Zm-140.81,240l-115.435,-0c-13.228,-0 -23.951,-11.192 -23.951,-24.998l0,-0.004c0,-13.806 10.723,-24.998 23.951,-24.998l263.431,-0c-16.267,7.609 -28.715,17.344 -28.743,34l0,68.03c5.08,7.608 13.768,13.206 23.952,17.97l-88.275,-0c-30.617,0 -55.437,-25.906 -55.437,-57.863l-0,-4.274c-0,-2.667 0.172,-5.292 0.507,-7.863Zm114.463,-200l-0,30l-366.378,-0c-3.812,0 -7.467,-1.58 -10.162,-4.393c-2.695,-2.813 -4.209,-6.629 -4.209,-10.607c-0,-8.284 6.434,-15 14.371,-15l366.378,-0Zm4.79,86l0,19l-243.257,-0c-2.413,0 -4.728,-1.001 -6.435,-2.782c-1.706,-1.781 -2.665,-4.197 -2.665,-6.716l0,-0.004c0,-2.519 0.959,-4.935 2.665,-6.716c1.707,-1.781 4.022,-2.782 6.435,-2.782l243.257,-0Zm-3.832,34l-0,16l-157.128,-0c-4.232,0 -7.663,-3.581 -7.663,-7.998l0,-0.002c0,-2.122 0.808,-4.157 2.245,-5.657c1.438,-1.5 3.387,-2.343 5.42,-2.343l157.126,-0Z" style="fill:#fff;"></path>
            </g>
        </g>
    </g>
</svg></svg></g></g></svg></g></svg>